<svg width="409" height="820" viewBox="0 0 409 820" fill="none" xmlns="http://www.w3.org/2000/svg">
<mask id="path-1-inside-1" fill="white">
<path fill-rule="evenodd" clip-rule="evenodd" d="M344.38 0H64.5837C42.2965 0 34.2146 2.28537 26.0668 6.57682C17.9189 10.8683 11.5244 17.1658 7.16689 25.1901C2.80936 33.2144 0.4888 41.1738 0.4888 63.123V756.72C0.4888 778.669 2.80936 786.626 7.16689 794.65C11.5244 802.674 17.9189 808.969 26.0668 813.26C34.2146 817.551 42.2965 819.84 64.5837 819.84H344.38C366.667 819.84 374.749 817.551 382.897 813.26C391.045 808.969 397.439 802.674 401.797 794.65C406.154 786.626 408.475 778.669 408.475 756.72V63.123C408.475 41.1738 406.154 33.2144 401.797 25.1901C397.439 17.1658 391.045 10.8683 382.897 6.57682C374.749 2.28537 366.667 0 344.38 0ZM182.36 41.3223C182.36 43.0899 180.775 44.5229 178.82 44.5229C176.866 44.5229 175.281 43.0899 175.281 41.3223C175.281 39.5547 176.866 38.1217 178.82 38.1217C180.775 38.1217 182.36 39.5547 182.36 41.3223ZM193.617 39.5988H228.279C229.384 39.5988 230.279 40.4807 230.279 41.5684C230.279 42.6562 229.384 43.5381 228.279 43.5381H193.617C192.512 43.5381 191.617 42.6562 191.617 41.5684C191.617 40.4807 192.512 39.5988 193.617 39.5988ZM391.984 76.2906H16.9838V743.291H391.984V76.2906Z"/>
</mask>
<path fill-rule="evenodd" clip-rule="evenodd" d="M344.38 0H64.5837C42.2965 0 34.2146 2.28537 26.0668 6.57682C17.9189 10.8683 11.5244 17.1658 7.16689 25.1901C2.80936 33.2144 0.4888 41.1738 0.4888 63.123V756.72C0.4888 778.669 2.80936 786.626 7.16689 794.65C11.5244 802.674 17.9189 808.969 26.0668 813.26C34.2146 817.551 42.2965 819.84 64.5837 819.84H344.38C366.667 819.84 374.749 817.551 382.897 813.26C391.045 808.969 397.439 802.674 401.797 794.65C406.154 786.626 408.475 778.669 408.475 756.72V63.123C408.475 41.1738 406.154 33.2144 401.797 25.1901C397.439 17.1658 391.045 10.8683 382.897 6.57682C374.749 2.28537 366.667 0 344.38 0ZM182.36 41.3223C182.36 43.0899 180.775 44.5229 178.82 44.5229C176.866 44.5229 175.281 43.0899 175.281 41.3223C175.281 39.5547 176.866 38.1217 178.82 38.1217C180.775 38.1217 182.36 39.5547 182.36 41.3223ZM193.617 39.5988H228.279C229.384 39.5988 230.279 40.4807 230.279 41.5684C230.279 42.6562 229.384 43.5381 228.279 43.5381H193.617C192.512 43.5381 191.617 42.6562 191.617 41.5684C191.617 40.4807 192.512 39.5988 193.617 39.5988ZM391.984 76.2906H16.9838V743.291H391.984V76.2906Z" fill="#DCD4D5"/>
<path d="M26.0668 6.57682L26.5328 7.4616L26.5328 7.4616L26.0668 6.57682ZM7.16689 25.1901L8.04567 25.6673L8.04567 25.6673L7.16689 25.1901ZM7.16689 794.65L6.2881 795.127L6.2881 795.127L7.16689 794.65ZM401.797 25.1901L400.918 25.6673L400.918 25.6673L401.797 25.1901ZM382.897 6.57682L382.431 7.4616L382.431 7.4616L382.897 6.57682ZM16.9838 76.2906V75.2906H15.9838V76.2906H16.9838ZM391.984 76.2906H392.984V75.2906H391.984V76.2906ZM16.9838 743.291H15.9838V744.291H16.9838V743.291ZM391.984 743.291V744.291H392.984V743.291H391.984ZM64.5837 1H344.38V-1H64.5837V1ZM26.5328 7.4616C34.4781 3.27682 42.3759 1 64.5837 1V-1C42.2171 -1 33.9512 1.29392 25.6008 5.69204L26.5328 7.4616ZM8.04567 25.6673C12.308 17.8182 18.5582 11.6618 26.5328 7.4616L25.6008 5.69204C17.2796 10.0747 10.7408 16.5134 6.2881 24.7129L8.04567 25.6673ZM1.4888 63.123C1.4888 41.2564 3.79993 33.4858 8.04567 25.6673L6.2881 24.7129C1.81879 32.9431 -0.5112 41.0911 -0.5112 63.123H1.4888ZM1.4888 756.72V63.123H-0.5112V756.72H1.4888ZM8.04567 794.173C3.79992 786.354 1.4888 778.586 1.4888 756.72H-0.5112C-0.5112 778.752 1.8188 786.897 6.2881 795.127L8.04567 794.173ZM26.5328 812.375C18.558 808.175 12.308 802.022 8.04567 794.173L6.2881 795.127C10.7409 803.327 17.2798 809.762 25.6008 814.145L26.5328 812.375ZM64.5837 818.84C42.3761 818.84 34.4782 816.56 26.5328 812.375L25.6008 814.145C33.951 818.543 42.2169 820.84 64.5837 820.84V818.84ZM344.38 818.84H64.5837V820.84H344.38V818.84ZM382.431 812.375C374.485 816.56 366.587 818.84 344.38 818.84V820.84C366.747 820.84 375.013 818.543 383.363 814.145L382.431 812.375ZM400.918 794.173C396.656 802.022 390.406 808.175 382.431 812.375L383.363 814.145C391.684 809.762 398.223 803.327 402.675 795.127L400.918 794.173ZM407.475 756.72C407.475 778.586 405.164 786.354 400.918 794.173L402.675 795.127C407.145 786.897 409.475 778.752 409.475 756.72H407.475ZM407.475 63.123V756.72H409.475V63.123H407.475ZM400.918 25.6673C405.164 33.4858 407.475 41.2564 407.475 63.123H409.475C409.475 41.0911 407.145 32.9431 402.675 24.7129L400.918 25.6673ZM382.431 7.4616C390.405 11.6618 396.655 17.8182 400.918 25.6673L402.675 24.7129C398.223 16.5134 391.684 10.0747 383.363 5.69204L382.431 7.4616ZM344.38 1C366.588 1 374.485 3.27682 382.431 7.4616L383.363 5.69204C375.012 1.29392 366.746 -1 344.38 -1V1ZM178.82 45.5229C181.23 45.5229 183.36 43.7345 183.36 41.3223H181.36C181.36 42.4454 180.32 43.5229 178.82 43.5229V45.5229ZM174.281 41.3223C174.281 43.7345 176.41 45.5229 178.82 45.5229V43.5229C177.321 43.5229 176.281 42.4454 176.281 41.3223H174.281ZM178.82 37.1217C176.41 37.1217 174.281 38.9101 174.281 41.3223H176.281C176.281 40.1992 177.321 39.1217 178.82 39.1217V37.1217ZM183.36 41.3223C183.36 38.9101 181.23 37.1217 178.82 37.1217V39.1217C180.32 39.1217 181.36 40.1992 181.36 41.3223H183.36ZM228.279 38.5988H193.617V40.5988H228.279V38.5988ZM231.279 41.5684C231.279 39.914 229.921 38.5988 228.279 38.5988V40.5988C228.846 40.5988 229.279 41.0473 229.279 41.5684H231.279ZM228.279 44.5381C229.921 44.5381 231.279 43.2229 231.279 41.5684H229.279C229.279 42.0896 228.846 42.5381 228.279 42.5381V44.5381ZM193.617 44.5381H228.279V42.5381H193.617V44.5381ZM190.617 41.5684C190.617 43.2229 191.975 44.5381 193.617 44.5381V42.5381C193.05 42.5381 192.617 42.0896 192.617 41.5684H190.617ZM193.617 38.5988C191.975 38.5988 190.617 39.914 190.617 41.5684H192.617C192.617 41.0473 193.05 40.5988 193.617 40.5988V38.5988ZM16.9838 77.2906H391.984V75.2906H16.9838V77.2906ZM17.9838 743.291V76.2906H15.9838V743.291H17.9838ZM391.984 742.291H16.9838V744.291H391.984V742.291ZM390.984 76.2906V743.291H392.984V76.2906H390.984Z" fill="#DDD5D6" mask="url(#path-1-inside-1)"/>
</svg>
