<svg width="684" height="684" viewBox="0 0 684 684" fill="none" xmlns="http://www.w3.org/2000/svg">
<path d="M341.303 0.667404C153.111 1.04333 0.667358 153.719 0.667358 341.999C0.667358 530.512 153.487 683.332 342 683.332C530.513 683.332 683.333 530.512 683.333 341.999C683.333 179.435 569.688 43.4137 417.511 9.04767L413.918 24.9031C558.847 57.6336 667.079 187.177 667.079 341.999C667.079 521.535 521.536 667.078 342 667.078C162.464 667.078 16.9213 521.535 16.9213 341.999C16.9213 162.695 162.088 17.2969 341.304 16.9214L341.303 0.667404Z" fill="white"/>
<path fill-rule="evenodd" clip-rule="evenodd" d="M342 663.015C519.292 663.015 663.015 519.292 663.015 342C663.015 164.708 519.292 20.9848 342 20.9848C164.708 20.9848 20.9847 164.708 20.9847 342C20.9847 519.292 164.708 663.015 342 663.015ZM342 683.333C530.513 683.333 683.333 530.513 683.333 342C683.333 153.487 530.513 0.667358 342 0.667358C153.487 0.667358 0.667236 153.487 0.667236 342C0.667236 530.513 153.487 683.333 342 683.333Z" fill="white"/>
<path fill-rule="evenodd" clip-rule="evenodd" d="M633.809 363.155L613.544 361.699C613.787 358.318 613.969 354.919 614.088 351.502C614.207 348.084 614.263 344.68 614.257 341.291L634.574 341.252C634.581 344.891 634.521 348.544 634.393 352.211C634.265 355.877 634.07 359.526 633.809 363.155ZM605.334 214.377L587.058 223.254C584.086 217.135 580.891 211.142 577.483 205.285L595.043 195.066C598.706 201.36 602.14 207.801 605.334 214.377ZM506.227 99.8231L494.808 116.628C489.203 112.819 483.448 109.214 477.552 105.823L487.681 88.2105C494.019 91.8555 500.204 95.7303 506.227 99.8231ZM363.155 50.1908L361.699 70.456C358.318 70.2132 354.919 70.0315 351.501 69.9121C348.084 69.7928 344.68 69.7369 341.291 69.7433L341.252 49.426C344.891 49.4191 348.544 49.4791 352.21 49.6071C355.877 49.7351 359.526 49.9301 363.155 50.1908ZM214.377 78.6665L223.253 96.9423C217.135 99.9139 211.142 103.109 205.285 106.517L195.066 88.957C201.36 85.2944 207.801 81.8606 214.377 78.6665ZM99.8227 177.773L116.627 189.192C112.819 194.797 109.213 200.552 105.822 206.448L88.2101 196.319C91.8552 189.981 95.7299 183.796 99.8227 177.773ZM50.1904 320.845C49.9297 324.474 49.7347 328.123 49.6067 331.789C49.4786 335.456 49.4186 339.109 49.4255 342.748L69.7429 342.709C69.7365 339.32 69.7924 335.916 69.9117 332.499C70.0311 329.081 70.2127 325.682 70.4556 322.301L50.1904 320.845ZM78.6661 469.623L96.9419 460.746C99.9135 466.865 103.109 472.858 106.517 478.715L88.9566 488.934C85.294 482.64 81.8602 476.199 78.6661 469.623ZM177.772 584.177L189.191 567.372C194.796 571.181 200.552 574.786 206.448 578.177L196.318 595.79C189.981 592.145 183.795 588.27 177.772 584.177ZM320.845 633.809L322.301 613.544C325.681 613.787 329.081 613.969 332.498 614.088C335.916 614.207 339.32 614.263 342.709 614.257L342.748 634.574C339.109 634.581 335.456 634.521 331.789 634.393C328.123 634.265 324.474 634.07 320.845 633.809ZM469.623 605.334L460.746 587.058C466.865 584.086 472.858 580.891 478.715 577.483L488.934 595.043C482.64 598.706 476.199 602.139 469.623 605.334ZM584.177 506.227L567.372 494.808C571.181 489.203 574.786 483.448 578.178 477.552L595.79 487.681C592.145 494.019 588.27 500.204 584.177 506.227Z" fill="white"/>
<path fill-rule="evenodd" clip-rule="evenodd" d="M406.735 56.6132C385.912 51.9103 364.247 49.4278 342.003 49.4278C341.772 49.4278 341.54 49.4281 341.309 49.4286L341.309 69.7461C341.541 69.7455 341.772 69.7452 342.003 69.7452C362.704 69.7452 382.865 72.0556 402.243 76.4325L406.735 56.6132ZM395.955 104.179C378.6 100.259 360.543 98.1896 342.003 98.1896C341.772 98.1896 341.541 98.1899 341.311 98.1906L341.311 118.508C341.542 118.507 341.773 118.507 342.003 118.507C359 118.507 375.553 120.404 391.463 123.999L395.955 104.179ZM385.175 151.746C371.288 148.608 356.839 146.951 342.003 146.951C341.773 146.951 341.543 146.952 341.313 146.953L341.313 167.27C341.543 167.269 341.773 167.269 342.003 167.269C355.296 167.269 368.241 168.753 380.684 171.565L385.175 151.746ZM374.396 199.312C363.976 196.956 353.135 195.713 342.003 195.713C341.774 195.713 341.544 195.714 341.315 195.715L341.315 216.032C341.545 216.031 341.774 216.031 342.003 216.031C351.591 216.031 360.929 217.102 369.904 219.131L374.396 199.312ZM363.616 246.878C356.664 245.305 349.431 244.475 342.003 244.475C341.774 244.475 341.545 244.476 341.317 244.477L341.317 264.795C341.546 264.793 341.774 264.792 342.003 264.792C347.887 264.792 353.618 265.451 359.124 266.697L363.616 246.878Z" fill="white"/>
</svg>
