<?xml version="1.0" standalone="no"?>
<!DOCTYPE svg PUBLIC "-//W3C//DTD SVG 20010904//EN"
 "http://www.w3.org/TR/2001/REC-SVG-20010904/DTD/svg10.dtd">
<svg version="1.0" xmlns="http://www.w3.org/2000/svg"
 width="260.000000pt" height="260.000000pt" viewBox="0 0 260.000000 260.000000"
 preserveAspectRatio="xMidYMid meet">
<metadata>
Created by potrace 1.11, written by Peter Selinger 2001-2013
</metadata>
<g transform="translate(0.000000,260.000000) scale(0.100000,-0.100000)"
fill="#000000" stroke="none">
<path d="M1185 2160 c-286 -42 -534 -220 -659 -474 -61 -123 -88 -233 -89
-366 -1 -131 6 -186 38 -286 120 -368 464 -610 852 -599 387 11 717 277 814
655 31 121 31 302 0 420 -82 312 -321 552 -630 631 -82 21 -245 30 -326 19z
m230 -54 c484 -62 809 -571 664 -1041 -105 -340 -415 -575 -764 -577 -120 0
-165 6 -264 38 -193 61 -367 205 -464 384 -102 187 -125 379 -73 605 17 74 83
206 139 280 125 164 343 291 535 311 32 3 58 7 59 8 4 4 113 -2 168 -8z"/>
<path d="M1309 2042 c-11 -2 -15 -10 -11 -27 3 -19 11 -25 31 -25 14 0 50 -3
79 -6 51 -7 52 -6 52 20 0 18 -5 26 -17 27 -10 0 -40 4 -68 7 -27 4 -57 6 -66
4z"/>
<path d="M953 1957 c-27 -12 -28 -17 -9 -42 12 -16 15 -17 34 -4 17 12 18 18
9 35 -10 18 -16 20 -34 11z"/>
<path d="M1655 1920 c-10 -30 23 -55 45 -34 11 11 12 19 4 32 -16 25 -41 26
-49 2z"/>
<path d="M1302 1894 c2 -22 8 -28 28 -30 14 -1 40 -3 59 -5 28 -3 35 0 42 18
10 28 7 30 -70 39 l-63 7 4 -29z"/>
<path d="M1300 1770 c0 -26 3 -28 46 -32 37 -3 48 0 56 15 13 26 2 34 -54 40
-47 4 -48 3 -48 -23z"/>
<path d="M672 1698 c-18 -18 -14 -36 9 -43 26 -8 53 23 37 42 -13 16 -31 16
-46 1z"/>
<path d="M1300 1646 c0 -19 6 -25 33 -29 40 -6 47 -2 47 29 0 21 -4 24 -40 24
-35 0 -40 -3 -40 -24z"/>
<path d="M1918 1658 c-12 -10 -14 -19 -7 -35 7 -20 11 -21 33 -12 21 10 23 15
14 35 -13 27 -18 29 -40 12z"/>
<path d="M1300 1519 c0 -26 3 -30 23 -27 16 2 22 10 22 27 0 17 -6 25 -22 27
-20 3 -23 -1 -23 -27z"/>
<path d="M557 1334 c-5 -29 0 -34 30 -34 34 0 33 46 -1 52 -19 4 -25 0 -29
-18z"/>
<path d="M1990 1276 c0 -17 7 -25 24 -28 20 -4 25 0 28 24 4 25 2 28 -24 28
-23 0 -28 -4 -28 -24z"/>
<path d="M653 987 c-18 -10 -20 -15 -11 -32 6 -11 12 -21 14 -23 4 -6 44 18
44 26 0 5 -6 16 -12 25 -11 13 -17 14 -35 4z"/>
<path d="M1883 930 c-11 -17 -10 -21 8 -30 15 -9 24 -8 35 1 19 15 18 35 -2
43 -24 9 -28 8 -41 -14z"/>
<path d="M900 709 c-9 -15 -8 -24 1 -35 15 -19 35 -18 43 2 9 24 8 28 -14 41
-17 11 -21 10 -30 -8z"/>
<path d="M1618 689 c-14 -8 -15 -14 -6 -34 9 -21 14 -23 32 -13 29 15 29 14
16 37 -12 23 -17 25 -42 10z"/>
<path d="M1247 590 c-6 -21 1 -29 33 -35 16 -3 20 2 20 26 0 24 -4 29 -24 29
-15 0 -26 -7 -29 -20z"/>
</g>
</svg>
